<svg xmlns="http://www.w3.org/2000/svg" xmlns:xlink="http://www.w3.org/1999/xlink" width="511" zoomAndPan="magnify" viewBox="0 0 383.25 68.999997" height="92" preserveAspectRatio="xMidYMid meet" version="1.0"><defs><g/><clipPath id="fada57b684"><path d="M 1 10.699219 L 33.847656 10.699219 L 33.847656 57.929688 L 1 57.929688 Z M 1 10.699219 " clip-rule="nonzero"/></clipPath></defs><g clip-path="url(#fada57b684)"><path fill="#5271ff" d="M 5.6875 41.28125 L 4.074219 39.234375 C 0.00390625 34.054688 1.738281 26.4375 7.652344 23.53125 L 33.738281 10.71875 L 33.738281 15.992188 C 33.738281 20.027344 31.433594 23.707031 27.808594 25.476562 L 10.464844 33.925781 C 9.203125 34.542969 8.097656 35.441406 7.261719 36.570312 C 6.425781 37.707031 5.707031 39.261719 5.761719 41.222656 C 6.332031 40.769531 6.964844 40.367188 7.652344 40.03125 L 33.738281 27.214844 L 33.738281 32.492188 C 33.738281 36.527344 31.433594 40.207031 27.804688 41.976562 L 10.464844 50.425781 C 9.203125 51.039062 8.097656 51.941406 7.261719 53.070312 C 6.402344 54.234375 5.664062 55.84375 5.769531 57.882812 L 4.074219 55.734375 C 0.496094 51.179688 1.402344 44.746094 5.6875 41.28125 Z M 22.628906 52.105469 L 33.730469 57.890625 L 33.726562 43.441406 L 22.652344 49.019531 C 21.386719 49.652344 21.375 51.453125 22.628906 52.105469 Z M 22.628906 52.105469 " fill-opacity="1" fill-rule="nonzero"/></g><g fill="#5271ff" fill-opacity="1"><g transform="translate(44.552679, 32.525938)"><g><path d="M 5.0625 -2.859375 L 9.921875 -2.859375 L 9.921875 0 L 1.34375 0 L 1.34375 -15.25 L 5.0625 -15.25 Z M 5.0625 -2.859375 "/></g></g></g><g fill="#5271ff" fill-opacity="1"><g transform="translate(54.47397, 32.525938)"><g><path d="M 5.0625 -15.25 L 5.0625 0 L 1.34375 0 L 1.34375 -15.25 Z M 5.0625 -15.25 "/></g></g></g><g fill="#5271ff" fill-opacity="1"><g transform="translate(60.444078, 32.525938)"><g><path d="M 15.65625 -15.25 L 10.25 0 L 5.609375 0 L 0.203125 -15.25 L 4.140625 -15.25 L 7.921875 -3.734375 L 11.734375 -15.25 Z M 15.65625 -15.25 "/></g></g></g><g fill="#5271ff" fill-opacity="1"><g transform="translate(75.857949, 32.525938)"><g><path d="M 5.0625 -12.265625 L 5.0625 -9.1875 L 10.03125 -9.1875 L 10.03125 -6.3125 L 5.0625 -6.3125 L 5.0625 -2.96875 L 10.6875 -2.96875 L 10.6875 0 L 1.34375 0 L 1.34375 -15.25 L 10.6875 -15.25 L 10.6875 -12.265625 Z M 5.0625 -12.265625 "/></g></g></g><g fill="#5271ff" fill-opacity="1"><g transform="translate(87.168668, 32.525938)"><g><path d="M 10.84375 -2.6875 L 5.140625 -2.6875 L 4.234375 0 L 0.34375 0 L 5.859375 -15.25 L 10.171875 -15.25 L 15.6875 0 L 11.75 0 Z M 9.875 -5.5625 L 8 -11.140625 L 6.125 -5.5625 Z M 9.875 -5.5625 "/></g></g></g><g fill="#5271ff" fill-opacity="1"><g transform="translate(102.734507, 32.525938)"><g><path d="M 6.859375 0.15625 C 5.742188 0.15625 4.742188 -0.0234375 3.859375 -0.390625 C 2.984375 -0.753906 2.28125 -1.289062 1.75 -2 C 1.21875 -2.707031 0.9375 -3.5625 0.90625 -4.5625 L 4.859375 -4.5625 C 4.921875 -4 5.117188 -3.566406 5.453125 -3.265625 C 5.785156 -2.972656 6.21875 -2.828125 6.75 -2.828125 C 7.300781 -2.828125 7.734375 -2.953125 8.046875 -3.203125 C 8.367188 -3.453125 8.53125 -3.800781 8.53125 -4.25 C 8.53125 -4.632812 8.40625 -4.945312 8.15625 -5.1875 C 7.90625 -5.4375 7.59375 -5.640625 7.21875 -5.796875 C 6.851562 -5.953125 6.328125 -6.132812 5.640625 -6.34375 C 4.660156 -6.644531 3.859375 -6.945312 3.234375 -7.25 C 2.609375 -7.550781 2.070312 -8 1.625 -8.59375 C 1.175781 -9.1875 0.953125 -9.960938 0.953125 -10.921875 C 0.953125 -12.335938 1.46875 -13.445312 2.5 -14.25 C 3.53125 -15.0625 4.867188 -15.46875 6.515625 -15.46875 C 8.191406 -15.46875 9.546875 -15.0625 10.578125 -14.25 C 11.609375 -13.445312 12.160156 -12.332031 12.234375 -10.90625 L 8.203125 -10.90625 C 8.179688 -11.394531 8.003906 -11.78125 7.671875 -12.0625 C 7.335938 -12.34375 6.910156 -12.484375 6.390625 -12.484375 C 5.941406 -12.484375 5.578125 -12.363281 5.296875 -12.125 C 5.023438 -11.882812 4.890625 -11.539062 4.890625 -11.09375 C 4.890625 -10.601562 5.117188 -10.21875 5.578125 -9.9375 C 6.046875 -9.664062 6.769531 -9.375 7.75 -9.0625 C 8.738281 -8.726562 9.539062 -8.40625 10.15625 -8.09375 C 10.769531 -7.789062 11.300781 -7.347656 11.75 -6.765625 C 12.195312 -6.191406 12.421875 -5.453125 12.421875 -4.546875 C 12.421875 -3.671875 12.195312 -2.878906 11.75 -2.171875 C 11.3125 -1.460938 10.671875 -0.894531 9.828125 -0.46875 C 8.992188 -0.0507812 8.003906 0.15625 6.859375 0.15625 Z M 6.859375 0.15625 "/></g></g></g><g fill="#5271ff" fill-opacity="1"><g transform="translate(115.65175, 32.525938)"><g><path d="M 6.859375 0.15625 C 5.742188 0.15625 4.742188 -0.0234375 3.859375 -0.390625 C 2.984375 -0.753906 2.28125 -1.289062 1.75 -2 C 1.21875 -2.707031 0.9375 -3.5625 0.90625 -4.5625 L 4.859375 -4.5625 C 4.921875 -4 5.117188 -3.566406 5.453125 -3.265625 C 5.785156 -2.972656 6.21875 -2.828125 6.75 -2.828125 C 7.300781 -2.828125 7.734375 -2.953125 8.046875 -3.203125 C 8.367188 -3.453125 8.53125 -3.800781 8.53125 -4.25 C 8.53125 -4.632812 8.40625 -4.945312 8.15625 -5.1875 C 7.90625 -5.4375 7.59375 -5.640625 7.21875 -5.796875 C 6.851562 -5.953125 6.328125 -6.132812 5.640625 -6.34375 C 4.660156 -6.644531 3.859375 -6.945312 3.234375 -7.25 C 2.609375 -7.550781 2.070312 -8 1.625 -8.59375 C 1.175781 -9.1875 0.953125 -9.960938 0.953125 -10.921875 C 0.953125 -12.335938 1.46875 -13.445312 2.5 -14.25 C 3.53125 -15.0625 4.867188 -15.46875 6.515625 -15.46875 C 8.191406 -15.46875 9.546875 -15.0625 10.578125 -14.25 C 11.609375 -13.445312 12.160156 -12.332031 12.234375 -10.90625 L 8.203125 -10.90625 C 8.179688 -11.394531 8.003906 -11.78125 7.671875 -12.0625 C 7.335938 -12.34375 6.910156 -12.484375 6.390625 -12.484375 C 5.941406 -12.484375 5.578125 -12.363281 5.296875 -12.125 C 5.023438 -11.882812 4.890625 -11.539062 4.890625 -11.09375 C 4.890625 -10.601562 5.117188 -10.21875 5.578125 -9.9375 C 6.046875 -9.664062 6.769531 -9.375 7.75 -9.0625 C 8.738281 -8.726562 9.539062 -8.40625 10.15625 -8.09375 C 10.769531 -7.789062 11.300781 -7.347656 11.75 -6.765625 C 12.195312 -6.191406 12.421875 -5.453125 12.421875 -4.546875 C 12.421875 -3.671875 12.195312 -2.878906 11.75 -2.171875 C 11.3125 -1.460938 10.671875 -0.894531 9.828125 -0.46875 C 8.992188 -0.0507812 8.003906 0.15625 6.859375 0.15625 Z M 6.859375 0.15625 "/></g></g></g><g fill="#5271ff" fill-opacity="1"><g transform="translate(128.568993, 32.525938)"><g><path d="M 5.0625 -15.25 L 5.0625 0 L 1.34375 0 L 1.34375 -15.25 Z M 5.0625 -15.25 "/></g></g></g><g fill="#5271ff" fill-opacity="1"><g transform="translate(134.539099, 32.525938)"><g><path d="M 6.859375 0.15625 C 5.742188 0.15625 4.742188 -0.0234375 3.859375 -0.390625 C 2.984375 -0.753906 2.28125 -1.289062 1.75 -2 C 1.21875 -2.707031 0.9375 -3.5625 0.90625 -4.5625 L 4.859375 -4.5625 C 4.921875 -4 5.117188 -3.566406 5.453125 -3.265625 C 5.785156 -2.972656 6.21875 -2.828125 6.75 -2.828125 C 7.300781 -2.828125 7.734375 -2.953125 8.046875 -3.203125 C 8.367188 -3.453125 8.53125 -3.800781 8.53125 -4.25 C 8.53125 -4.632812 8.40625 -4.945312 8.15625 -5.1875 C 7.90625 -5.4375 7.59375 -5.640625 7.21875 -5.796875 C 6.851562 -5.953125 6.328125 -6.132812 5.640625 -6.34375 C 4.660156 -6.644531 3.859375 -6.945312 3.234375 -7.25 C 2.609375 -7.550781 2.070312 -8 1.625 -8.59375 C 1.175781 -9.1875 0.953125 -9.960938 0.953125 -10.921875 C 0.953125 -12.335938 1.46875 -13.445312 2.5 -14.25 C 3.53125 -15.0625 4.867188 -15.46875 6.515625 -15.46875 C 8.191406 -15.46875 9.546875 -15.0625 10.578125 -14.25 C 11.609375 -13.445312 12.160156 -12.332031 12.234375 -10.90625 L 8.203125 -10.90625 C 8.179688 -11.394531 8.003906 -11.78125 7.671875 -12.0625 C 7.335938 -12.34375 6.910156 -12.484375 6.390625 -12.484375 C 5.941406 -12.484375 5.578125 -12.363281 5.296875 -12.125 C 5.023438 -11.882812 4.890625 -11.539062 4.890625 -11.09375 C 4.890625 -10.601562 5.117188 -10.21875 5.578125 -9.9375 C 6.046875 -9.664062 6.769531 -9.375 7.75 -9.0625 C 8.738281 -8.726562 9.539062 -8.40625 10.15625 -8.09375 C 10.769531 -7.789062 11.300781 -7.347656 11.75 -6.765625 C 12.195312 -6.191406 12.421875 -5.453125 12.421875 -4.546875 C 12.421875 -3.671875 12.195312 -2.878906 11.75 -2.171875 C 11.3125 -1.460938 10.671875 -0.894531 9.828125 -0.46875 C 8.992188 -0.0507812 8.003906 0.15625 6.859375 0.15625 Z M 6.859375 0.15625 "/></g></g></g><g fill="#5271ff" fill-opacity="1"><g transform="translate(147.456341, 32.525938)"><g><path d="M 12.3125 -15.25 L 12.3125 -12.265625 L 8.28125 -12.265625 L 8.28125 0 L 4.5625 0 L 4.5625 -12.265625 L 0.515625 -12.265625 L 0.515625 -15.25 Z M 12.3125 -15.25 "/></g></g></g><g fill="#5271ff" fill-opacity="1"><g transform="translate(159.852544, 32.525938)"><g><path d="M 1.109375 -11.375 C 1.160156 -12.925781 1.664062 -14.117188 2.625 -14.953125 C 3.582031 -15.796875 4.878906 -16.21875 6.515625 -16.21875 C 7.597656 -16.21875 8.523438 -16.03125 9.296875 -15.65625 C 10.078125 -15.28125 10.664062 -14.765625 11.0625 -14.109375 C 11.457031 -13.460938 11.65625 -12.734375 11.65625 -11.921875 C 11.65625 -10.960938 11.414062 -10.179688 10.9375 -9.578125 C 10.46875 -8.984375 9.914062 -8.578125 9.28125 -8.359375 L 9.28125 -8.28125 C 10.101562 -8 10.75 -7.539062 11.21875 -6.90625 C 11.695312 -6.269531 11.9375 -5.453125 11.9375 -4.453125 C 11.9375 -3.554688 11.726562 -2.765625 11.3125 -2.078125 C 10.90625 -1.390625 10.304688 -0.847656 9.515625 -0.453125 C 8.734375 -0.0664062 7.800781 0.125 6.71875 0.125 C 4.976562 0.125 3.585938 -0.300781 2.546875 -1.15625 C 1.515625 -2.007812 0.96875 -3.296875 0.90625 -5.015625 L 4.515625 -5.015625 C 4.535156 -4.378906 4.71875 -3.875 5.0625 -3.5 C 5.40625 -3.132812 5.910156 -2.953125 6.578125 -2.953125 C 7.140625 -2.953125 7.578125 -3.113281 7.890625 -3.4375 C 8.203125 -3.769531 8.359375 -4.203125 8.359375 -4.734375 C 8.359375 -5.429688 8.132812 -5.9375 7.6875 -6.25 C 7.25 -6.5625 6.546875 -6.71875 5.578125 -6.71875 L 4.890625 -6.71875 L 4.890625 -9.734375 L 5.578125 -9.734375 C 6.316406 -9.734375 6.914062 -9.859375 7.375 -10.109375 C 7.832031 -10.359375 8.0625 -10.8125 8.0625 -11.46875 C 8.0625 -11.988281 7.914062 -12.394531 7.625 -12.6875 C 7.332031 -12.976562 6.929688 -13.125 6.421875 -13.125 C 5.878906 -13.125 5.472656 -12.957031 5.203125 -12.625 C 4.929688 -12.289062 4.773438 -11.875 4.734375 -11.375 Z M 1.109375 -11.375 "/></g></g></g><g fill="#5271ff" fill-opacity="1"><g transform="translate(172.552688, 32.525938)"><g><path d="M 8.8125 -11.578125 C 8.695312 -12.109375 8.492188 -12.507812 8.203125 -12.78125 C 7.921875 -13.050781 7.507812 -13.1875 6.96875 -13.1875 C 6.144531 -13.1875 5.550781 -12.828125 5.1875 -12.109375 C 4.820312 -11.390625 4.632812 -10.253906 4.625 -8.703125 C 4.945312 -9.210938 5.40625 -9.613281 6 -9.90625 C 6.601562 -10.195312 7.269531 -10.34375 8 -10.34375 C 9.414062 -10.34375 10.550781 -9.890625 11.40625 -8.984375 C 12.269531 -8.085938 12.703125 -6.835938 12.703125 -5.234375 C 12.703125 -4.179688 12.488281 -3.253906 12.0625 -2.453125 C 11.632812 -1.660156 11.007812 -1.035156 10.1875 -0.578125 C 9.375 -0.128906 8.410156 0.09375 7.296875 0.09375 C 5.066406 0.09375 3.515625 -0.601562 2.640625 -2 C 1.773438 -3.40625 1.34375 -5.414062 1.34375 -8.03125 C 1.34375 -10.78125 1.800781 -12.828125 2.71875 -14.171875 C 3.644531 -15.515625 5.117188 -16.1875 7.140625 -16.1875 C 8.234375 -16.1875 9.148438 -15.972656 9.890625 -15.546875 C 10.640625 -15.117188 11.203125 -14.554688 11.578125 -13.859375 C 11.960938 -13.160156 12.191406 -12.398438 12.265625 -11.578125 Z M 7.109375 -7.40625 C 6.484375 -7.40625 5.960938 -7.21875 5.546875 -6.84375 C 5.140625 -6.476562 4.9375 -5.957031 4.9375 -5.28125 C 4.9375 -4.582031 5.125 -4.035156 5.5 -3.640625 C 5.882812 -3.253906 6.429688 -3.0625 7.140625 -3.0625 C 7.773438 -3.0625 8.273438 -3.253906 8.640625 -3.640625 C 9.015625 -4.023438 9.203125 -4.550781 9.203125 -5.21875 C 9.203125 -5.894531 9.019531 -6.425781 8.65625 -6.8125 C 8.300781 -7.207031 7.785156 -7.40625 7.109375 -7.40625 Z M 7.109375 -7.40625 "/></g></g></g><g fill="#5271ff" fill-opacity="1"><g transform="translate(185.947545, 32.525938)"><g><path d="M 0.984375 -8.140625 C 0.984375 -10.628906 1.460938 -12.59375 2.421875 -14.03125 C 3.378906 -15.46875 4.929688 -16.1875 7.078125 -16.1875 C 9.222656 -16.1875 10.773438 -15.46875 11.734375 -14.03125 C 12.703125 -12.59375 13.1875 -10.628906 13.1875 -8.140625 C 13.1875 -5.617188 12.703125 -3.640625 11.734375 -2.203125 C 10.773438 -0.773438 9.222656 -0.0625 7.078125 -0.0625 C 4.929688 -0.0625 3.378906 -0.773438 2.421875 -2.203125 C 1.460938 -3.640625 0.984375 -5.617188 0.984375 -8.140625 Z M 9.53125 -8.140625 C 9.53125 -9.609375 9.367188 -10.734375 9.046875 -11.515625 C 8.734375 -12.304688 8.078125 -12.703125 7.078125 -12.703125 C 6.078125 -12.703125 5.414062 -12.304688 5.09375 -11.515625 C 4.78125 -10.734375 4.625 -9.609375 4.625 -8.140625 C 4.625 -7.160156 4.679688 -6.347656 4.796875 -5.703125 C 4.910156 -5.054688 5.144531 -4.535156 5.5 -4.140625 C 5.851562 -3.742188 6.378906 -3.546875 7.078125 -3.546875 C 7.773438 -3.546875 8.300781 -3.742188 8.65625 -4.140625 C 9.007812 -4.535156 9.242188 -5.054688 9.359375 -5.703125 C 9.472656 -6.347656 9.53125 -7.160156 9.53125 -8.140625 Z M 9.53125 -8.140625 "/></g></g></g><g fill="#5271ff" fill-opacity="1"><g transform="translate(46.993648, 56.954024)"><g><path d="M 4.21875 0.109375 C 3.539062 0.109375 2.953125 -0.0078125 2.453125 -0.25 C 1.953125 -0.488281 1.5625 -0.804688 1.28125 -1.203125 C 1 -1.609375 0.835938 -2.0625 0.796875 -2.5625 L 1.5 -2.5625 C 1.570312 -2.019531 1.820312 -1.535156 2.25 -1.109375 C 2.675781 -0.679688 3.332031 -0.46875 4.21875 -0.46875 C 4.726562 -0.46875 5.171875 -0.5625 5.546875 -0.75 C 5.929688 -0.9375 6.222656 -1.191406 6.421875 -1.515625 C 6.628906 -1.847656 6.734375 -2.207031 6.734375 -2.59375 C 6.734375 -3.101562 6.613281 -3.503906 6.375 -3.796875 C 6.132812 -4.097656 5.832031 -4.320312 5.46875 -4.46875 C 5.113281 -4.613281 4.628906 -4.769531 4.015625 -4.9375 C 3.347656 -5.113281 2.804688 -5.289062 2.390625 -5.46875 C 1.984375 -5.644531 1.640625 -5.914062 1.359375 -6.28125 C 1.085938 -6.65625 0.953125 -7.160156 0.953125 -7.796875 C 0.953125 -8.296875 1.082031 -8.75 1.34375 -9.15625 C 1.601562 -9.5625 1.972656 -9.882812 2.453125 -10.125 C 2.929688 -10.363281 3.488281 -10.484375 4.125 -10.484375 C 5.039062 -10.484375 5.78125 -10.253906 6.34375 -9.796875 C 6.90625 -9.347656 7.238281 -8.789062 7.34375 -8.125 L 6.640625 -8.125 C 6.578125 -8.394531 6.441406 -8.664062 6.234375 -8.9375 C 6.035156 -9.21875 5.75 -9.445312 5.375 -9.625 C 5.007812 -9.8125 4.570312 -9.90625 4.0625 -9.90625 C 3.375 -9.90625 2.789062 -9.710938 2.3125 -9.328125 C 1.84375 -8.953125 1.609375 -8.445312 1.609375 -7.8125 C 1.609375 -7.3125 1.726562 -6.910156 1.96875 -6.609375 C 2.21875 -6.304688 2.519531 -6.078125 2.875 -5.921875 C 3.238281 -5.773438 3.726562 -5.625 4.34375 -5.46875 C 5.019531 -5.28125 5.554688 -5.097656 5.953125 -4.921875 C 6.359375 -4.753906 6.703125 -4.484375 6.984375 -4.109375 C 7.265625 -3.742188 7.40625 -3.242188 7.40625 -2.609375 C 7.40625 -2.148438 7.28125 -1.710938 7.03125 -1.296875 C 6.789062 -0.890625 6.429688 -0.550781 5.953125 -0.28125 C 5.472656 -0.0195312 4.894531 0.109375 4.21875 0.109375 Z M 4.21875 0.109375 "/></g></g></g><g fill="#5271ff" fill-opacity="1"><g transform="translate(54.889671, 56.954024)"><g><path d="M 8 -8.03125 L 8 0 L 7.328125 0 L 7.328125 -1.75 C 7.097656 -1.132812 6.71875 -0.664062 6.1875 -0.34375 C 5.664062 -0.0195312 5.066406 0.140625 4.390625 0.140625 C 3.429688 0.140625 2.648438 -0.148438 2.046875 -0.734375 C 1.441406 -1.328125 1.140625 -2.203125 1.140625 -3.359375 L 1.140625 -8.03125 L 1.78125 -8.03125 L 1.78125 -3.40625 C 1.78125 -2.445312 2.019531 -1.710938 2.5 -1.203125 C 2.988281 -0.691406 3.648438 -0.4375 4.484375 -0.4375 C 5.347656 -0.4375 6.035156 -0.710938 6.546875 -1.265625 C 7.066406 -1.816406 7.328125 -2.632812 7.328125 -3.71875 L 7.328125 -8.03125 Z M 8 -8.03125 "/></g></g></g><g fill="#5271ff" fill-opacity="1"><g transform="translate(63.805973, 56.954024)"><g><path d="M 1.875 -5.90625 C 2.101562 -6.5625 2.515625 -7.09375 3.109375 -7.5 C 3.703125 -7.914062 4.425781 -8.125 5.28125 -8.125 C 6.03125 -8.125 6.695312 -7.957031 7.28125 -7.625 C 7.863281 -7.289062 8.320312 -6.8125 8.65625 -6.1875 C 8.988281 -5.570312 9.15625 -4.847656 9.15625 -4.015625 C 9.15625 -3.191406 8.988281 -2.46875 8.65625 -1.84375 C 8.320312 -1.21875 7.863281 -0.734375 7.28125 -0.390625 C 6.695312 -0.046875 6.03125 0.125 5.28125 0.125 C 4.4375 0.125 3.71875 -0.0820312 3.125 -0.5 C 2.53125 -0.925781 2.113281 -1.457031 1.875 -2.09375 L 1.875 3.78125 L 1.21875 3.78125 L 1.21875 -8.03125 L 1.875 -8.03125 Z M 8.46875 -4.015625 C 8.46875 -4.742188 8.328125 -5.375 8.046875 -5.90625 C 7.773438 -6.4375 7.390625 -6.84375 6.890625 -7.125 C 6.398438 -7.40625 5.828125 -7.546875 5.171875 -7.546875 C 4.554688 -7.546875 3.992188 -7.398438 3.484375 -7.109375 C 2.984375 -6.828125 2.585938 -6.414062 2.296875 -5.875 C 2.015625 -5.332031 1.875 -4.710938 1.875 -4.015625 C 1.875 -3.304688 2.015625 -2.679688 2.296875 -2.140625 C 2.585938 -1.609375 2.984375 -1.195312 3.484375 -0.90625 C 3.992188 -0.613281 4.554688 -0.46875 5.171875 -0.46875 C 5.828125 -0.46875 6.398438 -0.609375 6.890625 -0.890625 C 7.390625 -1.179688 7.773438 -1.59375 8.046875 -2.125 C 8.328125 -2.65625 8.46875 -3.285156 8.46875 -4.015625 Z M 8.46875 -4.015625 "/></g></g></g><g fill="#5271ff" fill-opacity="1"><g transform="translate(73.461609, 56.954024)"><g><path d="M 1.875 -5.90625 C 2.101562 -6.5625 2.515625 -7.09375 3.109375 -7.5 C 3.703125 -7.914062 4.425781 -8.125 5.28125 -8.125 C 6.03125 -8.125 6.695312 -7.957031 7.28125 -7.625 C 7.863281 -7.289062 8.320312 -6.8125 8.65625 -6.1875 C 8.988281 -5.570312 9.15625 -4.847656 9.15625 -4.015625 C 9.15625 -3.191406 8.988281 -2.46875 8.65625 -1.84375 C 8.320312 -1.21875 7.863281 -0.734375 7.28125 -0.390625 C 6.695312 -0.046875 6.03125 0.125 5.28125 0.125 C 4.4375 0.125 3.71875 -0.0820312 3.125 -0.5 C 2.53125 -0.925781 2.113281 -1.457031 1.875 -2.09375 L 1.875 3.78125 L 1.21875 3.78125 L 1.21875 -8.03125 L 1.875 -8.03125 Z M 8.46875 -4.015625 C 8.46875 -4.742188 8.328125 -5.375 8.046875 -5.90625 C 7.773438 -6.4375 7.390625 -6.84375 6.890625 -7.125 C 6.398438 -7.40625 5.828125 -7.546875 5.171875 -7.546875 C 4.554688 -7.546875 3.992188 -7.398438 3.484375 -7.109375 C 2.984375 -6.828125 2.585938 -6.414062 2.296875 -5.875 C 2.015625 -5.332031 1.875 -4.710938 1.875 -4.015625 C 1.875 -3.304688 2.015625 -2.679688 2.296875 -2.140625 C 2.585938 -1.609375 2.984375 -1.195312 3.484375 -0.90625 C 3.992188 -0.613281 4.554688 -0.46875 5.171875 -0.46875 C 5.828125 -0.46875 6.398438 -0.609375 6.890625 -0.890625 C 7.390625 -1.179688 7.773438 -1.59375 8.046875 -2.125 C 8.328125 -2.65625 8.46875 -3.285156 8.46875 -4.015625 Z M 8.46875 -4.015625 "/></g></g></g><g fill="#5271ff" fill-opacity="1"><g transform="translate(83.117247, 56.954024)"><g><path d="M 4.75 0.125 C 4 0.125 3.320312 -0.0390625 2.71875 -0.375 C 2.113281 -0.71875 1.640625 -1.203125 1.296875 -1.828125 C 0.960938 -2.453125 0.796875 -3.179688 0.796875 -4.015625 C 0.796875 -4.847656 0.96875 -5.578125 1.3125 -6.203125 C 1.65625 -6.828125 2.128906 -7.300781 2.734375 -7.625 C 3.347656 -7.957031 4.03125 -8.125 4.78125 -8.125 C 5.519531 -8.125 6.191406 -7.957031 6.796875 -7.625 C 7.398438 -7.300781 7.867188 -6.828125 8.203125 -6.203125 C 8.546875 -5.585938 8.71875 -4.859375 8.71875 -4.015625 C 8.71875 -3.179688 8.546875 -2.453125 8.203125 -1.828125 C 7.859375 -1.203125 7.382812 -0.71875 6.78125 -0.375 C 6.175781 -0.0390625 5.5 0.125 4.75 0.125 Z M 4.75 -0.46875 C 5.320312 -0.46875 5.863281 -0.597656 6.375 -0.859375 C 6.882812 -1.117188 7.289062 -1.515625 7.59375 -2.046875 C 7.90625 -2.585938 8.0625 -3.242188 8.0625 -4.015625 C 8.0625 -4.785156 7.90625 -5.4375 7.59375 -5.96875 C 7.289062 -6.5 6.882812 -6.894531 6.375 -7.15625 C 5.875 -7.414062 5.335938 -7.546875 4.765625 -7.546875 C 4.179688 -7.546875 3.640625 -7.414062 3.140625 -7.15625 C 2.640625 -6.894531 2.238281 -6.5 1.9375 -5.96875 C 1.632812 -5.4375 1.484375 -4.785156 1.484375 -4.015625 C 1.484375 -3.242188 1.628906 -2.585938 1.921875 -2.046875 C 2.222656 -1.515625 2.625 -1.117188 3.125 -0.859375 C 3.625 -0.597656 4.164062 -0.46875 4.75 -0.46875 Z M 4.75 -0.46875 "/></g></g></g><g fill="#5271ff" fill-opacity="1"><g transform="translate(92.358854, 56.954024)"><g><path d="M 1.875 -6.375 C 2.070312 -6.957031 2.421875 -7.40625 2.921875 -7.71875 C 3.429688 -8.03125 4.070312 -8.1875 4.84375 -8.1875 L 4.84375 -7.5 L 4.625 -7.5 C 3.832031 -7.5 3.175781 -7.273438 2.65625 -6.828125 C 2.132812 -6.378906 1.875 -5.644531 1.875 -4.625 L 1.875 0 L 1.21875 0 L 1.21875 -8.03125 L 1.875 -8.03125 Z M 1.875 -6.375 "/></g></g></g><g fill="#5271ff" fill-opacity="1"><g transform="translate(97.23839, 56.954024)"><g><path d="M 2.203125 -7.453125 L 2.203125 -2.140625 C 2.203125 -1.546875 2.3125 -1.140625 2.53125 -0.921875 C 2.75 -0.703125 3.132812 -0.59375 3.6875 -0.59375 L 4.578125 -0.59375 L 4.578125 0 L 3.578125 0 C 2.878906 0 2.363281 -0.160156 2.03125 -0.484375 C 1.695312 -0.816406 1.53125 -1.367188 1.53125 -2.140625 L 1.53125 -7.453125 L 0.328125 -7.453125 L 0.328125 -8.03125 L 1.53125 -8.03125 L 1.53125 -10.0625 L 2.203125 -10.0625 L 2.203125 -8.03125 L 4.578125 -8.03125 L 4.578125 -7.453125 Z M 2.203125 -7.453125 "/></g></g></g><g fill="#5271ff" fill-opacity="1"><g transform="translate(102.073566, 56.954024)"><g/></g></g><g fill="#5271ff" fill-opacity="1"><g transform="translate(105.947608, 56.954024)"><g><path d="M 5.6875 -5.359375 C 6.289062 -5.253906 6.796875 -4.957031 7.203125 -4.46875 C 7.609375 -3.988281 7.8125 -3.425781 7.8125 -2.78125 C 7.8125 -2.25 7.6875 -1.769531 7.4375 -1.34375 C 7.1875 -0.925781 6.8125 -0.597656 6.3125 -0.359375 C 5.820312 -0.117188 5.222656 0 4.515625 0 L 1.21875 0 L 1.21875 -10.375 L 4.453125 -10.375 C 5.484375 -10.375 6.257812 -10.132812 6.78125 -9.65625 C 7.3125 -9.175781 7.578125 -8.554688 7.578125 -7.796875 C 7.578125 -7.140625 7.398438 -6.609375 7.046875 -6.203125 C 6.691406 -5.796875 6.238281 -5.515625 5.6875 -5.359375 Z M 1.875 -5.65625 L 4.484375 -5.65625 C 5.253906 -5.65625 5.847656 -5.835938 6.265625 -6.203125 C 6.691406 -6.578125 6.90625 -7.09375 6.90625 -7.75 C 6.90625 -8.375 6.695312 -8.867188 6.28125 -9.234375 C 5.863281 -9.597656 5.238281 -9.78125 4.40625 -9.78125 L 1.875 -9.78125 Z M 4.46875 -0.578125 C 5.300781 -0.578125 5.957031 -0.773438 6.4375 -1.171875 C 6.914062 -1.578125 7.15625 -2.128906 7.15625 -2.828125 C 7.15625 -3.515625 6.910156 -4.0625 6.421875 -4.46875 C 5.929688 -4.875 5.265625 -5.078125 4.421875 -5.078125 L 1.875 -5.078125 L 1.875 -0.578125 Z M 4.46875 -0.578125 "/></g></g></g><g fill="#5271ff" fill-opacity="1"><g transform="translate(114.213295, 56.954024)"><g><path d="M 8.4375 -4.546875 C 8.4375 -4.191406 8.425781 -3.925781 8.40625 -3.75 L 1.484375 -3.75 C 1.492188 -3.03125 1.644531 -2.425781 1.9375 -1.9375 C 2.238281 -1.445312 2.628906 -1.078125 3.109375 -0.828125 C 3.597656 -0.578125 4.128906 -0.453125 4.703125 -0.453125 C 5.492188 -0.453125 6.15625 -0.644531 6.6875 -1.03125 C 7.21875 -1.425781 7.550781 -1.957031 7.6875 -2.625 L 8.375 -2.625 C 8.21875 -1.8125 7.8125 -1.148438 7.15625 -0.640625 C 6.507812 -0.128906 5.691406 0.125 4.703125 0.125 C 3.953125 0.125 3.28125 -0.0390625 2.6875 -0.375 C 2.09375 -0.71875 1.628906 -1.203125 1.296875 -1.828125 C 0.960938 -2.453125 0.796875 -3.179688 0.796875 -4.015625 C 0.796875 -4.859375 0.957031 -5.585938 1.28125 -6.203125 C 1.613281 -6.828125 2.078125 -7.300781 2.671875 -7.625 C 3.265625 -7.957031 3.941406 -8.125 4.703125 -8.125 C 5.472656 -8.125 6.140625 -7.957031 6.703125 -7.625 C 7.265625 -7.300781 7.691406 -6.863281 7.984375 -6.3125 C 8.285156 -5.769531 8.4375 -5.179688 8.4375 -4.546875 Z M 7.78125 -4.296875 C 7.800781 -5.003906 7.671875 -5.601562 7.390625 -6.09375 C 7.117188 -6.59375 6.738281 -6.960938 6.25 -7.203125 C 5.769531 -7.441406 5.25 -7.5625 4.6875 -7.5625 C 4.125 -7.5625 3.601562 -7.441406 3.125 -7.203125 C 2.644531 -6.960938 2.253906 -6.59375 1.953125 -6.09375 C 1.648438 -5.601562 1.492188 -5.003906 1.484375 -4.296875 Z M 7.78125 -4.296875 "/></g></g></g><g fill="#5271ff" fill-opacity="1"><g transform="translate(123.159167, 56.954024)"><g><path d="M 7.484375 -8.03125 L 2.8125 3.765625 L 2.125 3.765625 L 3.625 0 L 0.25 -8.03125 L 0.96875 -8.03125 L 3.984375 -0.734375 L 6.796875 -8.03125 Z M 7.484375 -8.03125 "/></g></g></g><g fill="#5271ff" fill-opacity="1"><g transform="translate(130.611586, 56.954024)"><g><path d="M 4.75 0.125 C 4 0.125 3.320312 -0.0390625 2.71875 -0.375 C 2.113281 -0.71875 1.640625 -1.203125 1.296875 -1.828125 C 0.960938 -2.453125 0.796875 -3.179688 0.796875 -4.015625 C 0.796875 -4.847656 0.96875 -5.578125 1.3125 -6.203125 C 1.65625 -6.828125 2.128906 -7.300781 2.734375 -7.625 C 3.347656 -7.957031 4.03125 -8.125 4.78125 -8.125 C 5.519531 -8.125 6.191406 -7.957031 6.796875 -7.625 C 7.398438 -7.300781 7.867188 -6.828125 8.203125 -6.203125 C 8.546875 -5.585938 8.71875 -4.859375 8.71875 -4.015625 C 8.71875 -3.179688 8.546875 -2.453125 8.203125 -1.828125 C 7.859375 -1.203125 7.382812 -0.71875 6.78125 -0.375 C 6.175781 -0.0390625 5.5 0.125 4.75 0.125 Z M 4.75 -0.46875 C 5.320312 -0.46875 5.863281 -0.597656 6.375 -0.859375 C 6.882812 -1.117188 7.289062 -1.515625 7.59375 -2.046875 C 7.90625 -2.585938 8.0625 -3.242188 8.0625 -4.015625 C 8.0625 -4.785156 7.90625 -5.4375 7.59375 -5.96875 C 7.289062 -6.5 6.882812 -6.894531 6.375 -7.15625 C 5.875 -7.414062 5.335938 -7.546875 4.765625 -7.546875 C 4.179688 -7.546875 3.640625 -7.414062 3.140625 -7.15625 C 2.640625 -6.894531 2.238281 -6.5 1.9375 -5.96875 C 1.632812 -5.4375 1.484375 -4.785156 1.484375 -4.015625 C 1.484375 -3.242188 1.628906 -2.585938 1.921875 -2.046875 C 2.222656 -1.515625 2.625 -1.117188 3.125 -0.859375 C 3.625 -0.597656 4.164062 -0.46875 4.75 -0.46875 Z M 4.75 -0.46875 "/></g></g></g><g fill="#5271ff" fill-opacity="1"><g transform="translate(139.853193, 56.954024)"><g><path d="M 4.828125 -8.1875 C 5.785156 -8.1875 6.566406 -7.894531 7.171875 -7.3125 C 7.773438 -6.726562 8.078125 -5.859375 8.078125 -4.703125 L 8.078125 0 L 7.421875 0 L 7.421875 -4.65625 C 7.421875 -5.613281 7.175781 -6.34375 6.6875 -6.84375 C 6.207031 -7.351562 5.554688 -7.609375 4.734375 -7.609375 C 3.859375 -7.609375 3.160156 -7.332031 2.640625 -6.78125 C 2.128906 -6.226562 1.875 -5.410156 1.875 -4.328125 L 1.875 0 L 1.21875 0 L 1.21875 -8.03125 L 1.875 -8.03125 L 1.875 -6.328125 C 2.101562 -6.929688 2.476562 -7.390625 3 -7.703125 C 3.53125 -8.023438 4.140625 -8.1875 4.828125 -8.1875 Z M 4.828125 -8.1875 "/></g></g></g><g fill="#5271ff" fill-opacity="1"><g transform="translate(148.769496, 56.954024)"><g><path d="M 0.796875 -4.015625 C 0.796875 -4.847656 0.957031 -5.570312 1.28125 -6.1875 C 1.613281 -6.8125 2.070312 -7.289062 2.65625 -7.625 C 3.25 -7.957031 3.921875 -8.125 4.671875 -8.125 C 5.484375 -8.125 6.191406 -7.921875 6.796875 -7.515625 C 7.398438 -7.109375 7.828125 -6.578125 8.078125 -5.921875 L 8.078125 -10.9375 L 8.734375 -10.9375 L 8.734375 0 L 8.078125 0 L 8.078125 -2.125 C 7.835938 -1.46875 7.421875 -0.925781 6.828125 -0.5 C 6.234375 -0.0820312 5.515625 0.125 4.671875 0.125 C 3.921875 0.125 3.25 -0.046875 2.65625 -0.390625 C 2.070312 -0.734375 1.613281 -1.21875 1.28125 -1.84375 C 0.957031 -2.46875 0.796875 -3.191406 0.796875 -4.015625 Z M 8.078125 -4.015625 C 8.078125 -4.710938 7.929688 -5.332031 7.640625 -5.875 C 7.347656 -6.414062 6.945312 -6.828125 6.4375 -7.109375 C 5.9375 -7.398438 5.378906 -7.546875 4.765625 -7.546875 C 4.109375 -7.546875 3.535156 -7.40625 3.046875 -7.125 C 2.554688 -6.84375 2.171875 -6.4375 1.890625 -5.90625 C 1.617188 -5.375 1.484375 -4.742188 1.484375 -4.015625 C 1.484375 -3.285156 1.617188 -2.65625 1.890625 -2.125 C 2.171875 -1.59375 2.554688 -1.179688 3.046875 -0.890625 C 3.546875 -0.609375 4.117188 -0.46875 4.765625 -0.46875 C 5.378906 -0.46875 5.941406 -0.613281 6.453125 -0.90625 C 6.960938 -1.195312 7.359375 -1.609375 7.640625 -2.140625 C 7.929688 -2.679688 8.078125 -3.304688 8.078125 -4.015625 Z M 8.078125 -4.015625 "/></g></g></g><g fill="#5271ff" fill-opacity="1"><g transform="translate(158.425134, 56.954024)"><g/></g></g><g fill="#5271ff" fill-opacity="1"><g transform="translate(162.299177, 56.954024)"><g><path d="M 5.6875 -5.359375 C 6.289062 -5.253906 6.796875 -4.957031 7.203125 -4.46875 C 7.609375 -3.988281 7.8125 -3.425781 7.8125 -2.78125 C 7.8125 -2.25 7.6875 -1.769531 7.4375 -1.34375 C 7.1875 -0.925781 6.8125 -0.597656 6.3125 -0.359375 C 5.820312 -0.117188 5.222656 0 4.515625 0 L 1.21875 0 L 1.21875 -10.375 L 4.453125 -10.375 C 5.484375 -10.375 6.257812 -10.132812 6.78125 -9.65625 C 7.3125 -9.175781 7.578125 -8.554688 7.578125 -7.796875 C 7.578125 -7.140625 7.398438 -6.609375 7.046875 -6.203125 C 6.691406 -5.796875 6.238281 -5.515625 5.6875 -5.359375 Z M 1.875 -5.65625 L 4.484375 -5.65625 C 5.253906 -5.65625 5.847656 -5.835938 6.265625 -6.203125 C 6.691406 -6.578125 6.90625 -7.09375 6.90625 -7.75 C 6.90625 -8.375 6.695312 -8.867188 6.28125 -9.234375 C 5.863281 -9.597656 5.238281 -9.78125 4.40625 -9.78125 L 1.875 -9.78125 Z M 4.46875 -0.578125 C 5.300781 -0.578125 5.957031 -0.773438 6.4375 -1.171875 C 6.914062 -1.578125 7.15625 -2.128906 7.15625 -2.828125 C 7.15625 -3.515625 6.910156 -4.0625 6.421875 -4.46875 C 5.929688 -4.875 5.265625 -5.078125 4.421875 -5.078125 L 1.875 -5.078125 L 1.875 -0.578125 Z M 4.46875 -0.578125 "/></g></g></g><g fill="#5271ff" fill-opacity="1"><g transform="translate(170.564864, 56.954024)"><g><path d="M 4.75 0.125 C 4 0.125 3.320312 -0.0390625 2.71875 -0.375 C 2.113281 -0.71875 1.640625 -1.203125 1.296875 -1.828125 C 0.960938 -2.453125 0.796875 -3.179688 0.796875 -4.015625 C 0.796875 -4.847656 0.96875 -5.578125 1.3125 -6.203125 C 1.65625 -6.828125 2.128906 -7.300781 2.734375 -7.625 C 3.347656 -7.957031 4.03125 -8.125 4.78125 -8.125 C 5.519531 -8.125 6.191406 -7.957031 6.796875 -7.625 C 7.398438 -7.300781 7.867188 -6.828125 8.203125 -6.203125 C 8.546875 -5.585938 8.71875 -4.859375 8.71875 -4.015625 C 8.71875 -3.179688 8.546875 -2.453125 8.203125 -1.828125 C 7.859375 -1.203125 7.382812 -0.71875 6.78125 -0.375 C 6.175781 -0.0390625 5.5 0.125 4.75 0.125 Z M 4.75 -0.46875 C 5.320312 -0.46875 5.863281 -0.597656 6.375 -0.859375 C 6.882812 -1.117188 7.289062 -1.515625 7.59375 -2.046875 C 7.90625 -2.585938 8.0625 -3.242188 8.0625 -4.015625 C 8.0625 -4.785156 7.90625 -5.4375 7.59375 -5.96875 C 7.289062 -6.5 6.882812 -6.894531 6.375 -7.15625 C 5.875 -7.414062 5.335938 -7.546875 4.765625 -7.546875 C 4.179688 -7.546875 3.640625 -7.414062 3.140625 -7.15625 C 2.640625 -6.894531 2.238281 -6.5 1.9375 -5.96875 C 1.632812 -5.4375 1.484375 -4.785156 1.484375 -4.015625 C 1.484375 -3.242188 1.628906 -2.585938 1.921875 -2.046875 C 2.222656 -1.515625 2.625 -1.117188 3.125 -0.859375 C 3.625 -0.597656 4.164062 -0.46875 4.75 -0.46875 Z M 4.75 -0.46875 "/></g></g></g><g fill="#5271ff" fill-opacity="1"><g transform="translate(179.806471, 56.954024)"><g><path d="M 8 -8.03125 L 8 0 L 7.328125 0 L 7.328125 -1.75 C 7.097656 -1.132812 6.71875 -0.664062 6.1875 -0.34375 C 5.664062 -0.0195312 5.066406 0.140625 4.390625 0.140625 C 3.429688 0.140625 2.648438 -0.148438 2.046875 -0.734375 C 1.441406 -1.328125 1.140625 -2.203125 1.140625 -3.359375 L 1.140625 -8.03125 L 1.78125 -8.03125 L 1.78125 -3.40625 C 1.78125 -2.445312 2.019531 -1.710938 2.5 -1.203125 C 2.988281 -0.691406 3.648438 -0.4375 4.484375 -0.4375 C 5.347656 -0.4375 6.035156 -0.710938 6.546875 -1.265625 C 7.066406 -1.816406 7.328125 -2.632812 7.328125 -3.71875 L 7.328125 -8.03125 Z M 8 -8.03125 "/></g></g></g><g fill="#5271ff" fill-opacity="1"><g transform="translate(188.722774, 56.954024)"><g><path d="M 4.828125 -8.1875 C 5.785156 -8.1875 6.566406 -7.894531 7.171875 -7.3125 C 7.773438 -6.726562 8.078125 -5.859375 8.078125 -4.703125 L 8.078125 0 L 7.421875 0 L 7.421875 -4.65625 C 7.421875 -5.613281 7.175781 -6.34375 6.6875 -6.84375 C 6.207031 -7.351562 5.554688 -7.609375 4.734375 -7.609375 C 3.859375 -7.609375 3.160156 -7.332031 2.640625 -6.78125 C 2.128906 -6.226562 1.875 -5.410156 1.875 -4.328125 L 1.875 0 L 1.21875 0 L 1.21875 -8.03125 L 1.875 -8.03125 L 1.875 -6.328125 C 2.101562 -6.929688 2.476562 -7.390625 3 -7.703125 C 3.53125 -8.023438 4.140625 -8.1875 4.828125 -8.1875 Z M 4.828125 -8.1875 "/></g></g></g><g fill="#5271ff" fill-opacity="1"><g transform="translate(197.639069, 56.954024)"><g><path d="M 0.796875 -4.015625 C 0.796875 -4.847656 0.957031 -5.570312 1.28125 -6.1875 C 1.613281 -6.8125 2.070312 -7.289062 2.65625 -7.625 C 3.25 -7.957031 3.921875 -8.125 4.671875 -8.125 C 5.484375 -8.125 6.191406 -7.921875 6.796875 -7.515625 C 7.398438 -7.109375 7.828125 -6.578125 8.078125 -5.921875 L 8.078125 -10.9375 L 8.734375 -10.9375 L 8.734375 0 L 8.078125 0 L 8.078125 -2.125 C 7.835938 -1.46875 7.421875 -0.925781 6.828125 -0.5 C 6.234375 -0.0820312 5.515625 0.125 4.671875 0.125 C 3.921875 0.125 3.25 -0.046875 2.65625 -0.390625 C 2.070312 -0.734375 1.613281 -1.21875 1.28125 -1.84375 C 0.957031 -2.46875 0.796875 -3.191406 0.796875 -4.015625 Z M 8.078125 -4.015625 C 8.078125 -4.710938 7.929688 -5.332031 7.640625 -5.875 C 7.347656 -6.414062 6.945312 -6.828125 6.4375 -7.109375 C 5.9375 -7.398438 5.378906 -7.546875 4.765625 -7.546875 C 4.109375 -7.546875 3.535156 -7.40625 3.046875 -7.125 C 2.554688 -6.84375 2.171875 -6.4375 1.890625 -5.90625 C 1.617188 -5.375 1.484375 -4.742188 1.484375 -4.015625 C 1.484375 -3.285156 1.617188 -2.65625 1.890625 -2.125 C 2.171875 -1.59375 2.554688 -1.179688 3.046875 -0.890625 C 3.546875 -0.609375 4.117188 -0.46875 4.765625 -0.46875 C 5.378906 -0.46875 5.941406 -0.613281 6.453125 -0.90625 C 6.960938 -1.195312 7.359375 -1.609375 7.640625 -2.140625 C 7.929688 -2.679688 8.078125 -3.304688 8.078125 -4.015625 Z M 8.078125 -4.015625 "/></g></g></g><g fill="#5271ff" fill-opacity="1"><g transform="translate(207.294707, 56.954024)"><g><path d="M 0.796875 -4.015625 C 0.796875 -4.847656 0.957031 -5.570312 1.28125 -6.1875 C 1.613281 -6.8125 2.070312 -7.289062 2.65625 -7.625 C 3.25 -7.957031 3.921875 -8.125 4.671875 -8.125 C 5.515625 -8.125 6.234375 -7.914062 6.828125 -7.5 C 7.421875 -7.09375 7.835938 -6.566406 8.078125 -5.921875 L 8.078125 -8.03125 L 8.734375 -8.03125 L 8.734375 0 L 8.078125 0 L 8.078125 -2.109375 C 7.835938 -1.460938 7.414062 -0.925781 6.8125 -0.5 C 6.21875 -0.0820312 5.503906 0.125 4.671875 0.125 C 3.921875 0.125 3.25 -0.046875 2.65625 -0.390625 C 2.070312 -0.734375 1.613281 -1.21875 1.28125 -1.84375 C 0.957031 -2.46875 0.796875 -3.191406 0.796875 -4.015625 Z M 8.078125 -4.015625 C 8.078125 -4.710938 7.929688 -5.332031 7.640625 -5.875 C 7.347656 -6.414062 6.945312 -6.828125 6.4375 -7.109375 C 5.9375 -7.398438 5.378906 -7.546875 4.765625 -7.546875 C 4.109375 -7.546875 3.535156 -7.40625 3.046875 -7.125 C 2.554688 -6.84375 2.171875 -6.4375 1.890625 -5.90625 C 1.617188 -5.375 1.484375 -4.742188 1.484375 -4.015625 C 1.484375 -3.285156 1.617188 -2.65625 1.890625 -2.125 C 2.171875 -1.59375 2.554688 -1.179688 3.046875 -0.890625 C 3.546875 -0.609375 4.117188 -0.46875 4.765625 -0.46875 C 5.378906 -0.46875 5.941406 -0.613281 6.453125 -0.90625 C 6.960938 -1.195312 7.359375 -1.609375 7.640625 -2.140625 C 7.929688 -2.679688 8.078125 -3.304688 8.078125 -4.015625 Z M 8.078125 -4.015625 "/></g></g></g><g fill="#5271ff" fill-opacity="1"><g transform="translate(216.950345, 56.954024)"><g><path d="M 1.875 -6.375 C 2.070312 -6.957031 2.421875 -7.40625 2.921875 -7.71875 C 3.429688 -8.03125 4.070312 -8.1875 4.84375 -8.1875 L 4.84375 -7.5 L 4.625 -7.5 C 3.832031 -7.5 3.175781 -7.273438 2.65625 -6.828125 C 2.132812 -6.378906 1.875 -5.644531 1.875 -4.625 L 1.875 0 L 1.21875 0 L 1.21875 -8.03125 L 1.875 -8.03125 Z M 1.875 -6.375 "/></g></g></g><g fill="#5271ff" fill-opacity="1"><g transform="translate(221.829873, 56.954024)"><g><path d="M 1.546875 -9.8125 C 1.390625 -9.8125 1.253906 -9.863281 1.140625 -9.96875 C 1.035156 -10.070312 0.984375 -10.210938 0.984375 -10.390625 C 0.984375 -10.554688 1.035156 -10.691406 1.140625 -10.796875 C 1.253906 -10.910156 1.390625 -10.96875 1.546875 -10.96875 C 1.703125 -10.96875 1.832031 -10.910156 1.9375 -10.796875 C 2.050781 -10.691406 2.109375 -10.554688 2.109375 -10.390625 C 2.109375 -10.210938 2.050781 -10.070312 1.9375 -9.96875 C 1.832031 -9.863281 1.703125 -9.8125 1.546875 -9.8125 Z M 1.875 -8.03125 L 1.875 0 L 1.21875 0 L 1.21875 -8.03125 Z M 1.875 -8.03125 "/></g></g></g><g fill="#5271ff" fill-opacity="1"><g transform="translate(224.639268, 56.954024)"><g><path d="M 8.4375 -4.546875 C 8.4375 -4.191406 8.425781 -3.925781 8.40625 -3.75 L 1.484375 -3.75 C 1.492188 -3.03125 1.644531 -2.425781 1.9375 -1.9375 C 2.238281 -1.445312 2.628906 -1.078125 3.109375 -0.828125 C 3.597656 -0.578125 4.128906 -0.453125 4.703125 -0.453125 C 5.492188 -0.453125 6.15625 -0.644531 6.6875 -1.03125 C 7.21875 -1.425781 7.550781 -1.957031 7.6875 -2.625 L 8.375 -2.625 C 8.21875 -1.8125 7.8125 -1.148438 7.15625 -0.640625 C 6.507812 -0.128906 5.691406 0.125 4.703125 0.125 C 3.953125 0.125 3.28125 -0.0390625 2.6875 -0.375 C 2.09375 -0.71875 1.628906 -1.203125 1.296875 -1.828125 C 0.960938 -2.453125 0.796875 -3.179688 0.796875 -4.015625 C 0.796875 -4.859375 0.957031 -5.585938 1.28125 -6.203125 C 1.613281 -6.828125 2.078125 -7.300781 2.671875 -7.625 C 3.265625 -7.957031 3.941406 -8.125 4.703125 -8.125 C 5.472656 -8.125 6.140625 -7.957031 6.703125 -7.625 C 7.265625 -7.300781 7.691406 -6.863281 7.984375 -6.3125 C 8.285156 -5.769531 8.4375 -5.179688 8.4375 -4.546875 Z M 7.78125 -4.296875 C 7.800781 -5.003906 7.671875 -5.601562 7.390625 -6.09375 C 7.117188 -6.59375 6.738281 -6.960938 6.25 -7.203125 C 5.769531 -7.441406 5.25 -7.5625 4.6875 -7.5625 C 4.125 -7.5625 3.601562 -7.441406 3.125 -7.203125 C 2.644531 -6.960938 2.253906 -6.59375 1.953125 -6.09375 C 1.648438 -5.601562 1.492188 -5.003906 1.484375 -4.296875 Z M 7.78125 -4.296875 "/></g></g></g><g fill="#5271ff" fill-opacity="1"><g transform="translate(233.585136, 56.954024)"><g><path d="M 3.890625 0.125 C 2.992188 0.125 2.257812 -0.0703125 1.6875 -0.46875 C 1.125 -0.863281 0.804688 -1.425781 0.734375 -2.15625 L 1.421875 -2.15625 C 1.472656 -1.632812 1.710938 -1.21875 2.140625 -0.90625 C 2.566406 -0.601562 3.148438 -0.453125 3.890625 -0.453125 C 4.492188 -0.453125 4.976562 -0.609375 5.34375 -0.921875 C 5.707031 -1.234375 5.890625 -1.613281 5.890625 -2.0625 C 5.890625 -2.382812 5.789062 -2.644531 5.59375 -2.84375 C 5.40625 -3.039062 5.164062 -3.191406 4.875 -3.296875 C 4.59375 -3.410156 4.203125 -3.535156 3.703125 -3.671875 C 3.117188 -3.828125 2.644531 -3.976562 2.28125 -4.125 C 1.914062 -4.28125 1.601562 -4.507812 1.34375 -4.8125 C 1.082031 -5.125 0.953125 -5.535156 0.953125 -6.046875 C 0.953125 -6.421875 1.066406 -6.765625 1.296875 -7.078125 C 1.523438 -7.398438 1.84375 -7.65625 2.25 -7.84375 C 2.65625 -8.03125 3.113281 -8.125 3.625 -8.125 C 4.457031 -8.125 5.132812 -7.914062 5.65625 -7.5 C 6.175781 -7.082031 6.453125 -6.503906 6.484375 -5.765625 L 5.828125 -5.765625 C 5.796875 -6.296875 5.585938 -6.726562 5.203125 -7.0625 C 4.816406 -7.394531 4.285156 -7.5625 3.609375 -7.5625 C 3.035156 -7.5625 2.5625 -7.414062 2.1875 -7.125 C 1.8125 -6.832031 1.625 -6.472656 1.625 -6.046875 C 1.625 -5.671875 1.726562 -5.367188 1.9375 -5.140625 C 2.15625 -4.910156 2.414062 -4.734375 2.71875 -4.609375 C 3.03125 -4.484375 3.445312 -4.351562 3.96875 -4.21875 C 4.519531 -4.0625 4.96875 -3.910156 5.3125 -3.765625 C 5.65625 -3.628906 5.941406 -3.425781 6.171875 -3.15625 C 6.410156 -2.882812 6.53125 -2.519531 6.53125 -2.0625 C 6.53125 -1.65625 6.414062 -1.28125 6.1875 -0.9375 C 5.96875 -0.601562 5.65625 -0.34375 5.25 -0.15625 C 4.84375 0.03125 4.390625 0.125 3.890625 0.125 Z M 3.890625 0.125 "/></g></g></g><g fill="#5271ff" fill-opacity="1"><g transform="translate(240.63831, 56.954024)"><g><path d="M 1.65625 -1.546875 L 0.265625 2.234375 L -0.234375 2.234375 L 0.890625 -1.546875 Z M 1.65625 -1.546875 "/></g></g></g><g fill="#5271ff" fill-opacity="1"><g transform="translate(242.456999, 56.954024)"><g/></g></g><g fill="#5271ff" fill-opacity="1"><g transform="translate(246.331041, 56.954024)"><g><path d="M 7.09375 -2.65625 L 2.171875 -2.65625 L 1.1875 0 L 0.453125 0 L 4.265625 -10.140625 L 5.015625 -10.140625 L 8.8125 0 L 8.078125 0 Z M 6.890625 -3.21875 L 4.640625 -9.265625 L 2.375 -3.21875 Z M 6.890625 -3.21875 "/></g></g></g><g fill="#5271ff" fill-opacity="1"><g transform="translate(255.306482, 56.954024)"><g><path d="M 1.875 -10.9375 L 1.875 0 L 1.21875 0 L 1.21875 -10.9375 Z M 1.875 -10.9375 "/></g></g></g><g fill="#5271ff" fill-opacity="1"><g transform="translate(258.115878, 56.954024)"><g><path d="M 11.703125 -8.03125 L 9.171875 0 L 8.546875 0 L 5.984375 -7.109375 L 3.421875 0 L 2.78125 0 L 0.25 -8.03125 L 0.953125 -8.03125 L 3.109375 -0.75 L 5.671875 -8.03125 L 6.3125 -8.03125 L 8.875 -0.78125 L 11.03125 -8.03125 Z M 11.703125 -8.03125 "/></g></g></g><g fill="#5271ff" fill-opacity="1"><g transform="translate(269.782502, 56.954024)"><g><path d="M 0.796875 -4.015625 C 0.796875 -4.847656 0.957031 -5.570312 1.28125 -6.1875 C 1.613281 -6.8125 2.070312 -7.289062 2.65625 -7.625 C 3.25 -7.957031 3.921875 -8.125 4.671875 -8.125 C 5.515625 -8.125 6.234375 -7.914062 6.828125 -7.5 C 7.421875 -7.09375 7.835938 -6.566406 8.078125 -5.921875 L 8.078125 -8.03125 L 8.734375 -8.03125 L 8.734375 0 L 8.078125 0 L 8.078125 -2.109375 C 7.835938 -1.460938 7.414062 -0.925781 6.8125 -0.5 C 6.21875 -0.0820312 5.503906 0.125 4.671875 0.125 C 3.921875 0.125 3.25 -0.046875 2.65625 -0.390625 C 2.070312 -0.734375 1.613281 -1.21875 1.28125 -1.84375 C 0.957031 -2.46875 0.796875 -3.191406 0.796875 -4.015625 Z M 8.078125 -4.015625 C 8.078125 -4.710938 7.929688 -5.332031 7.640625 -5.875 C 7.347656 -6.414062 6.945312 -6.828125 6.4375 -7.109375 C 5.9375 -7.398438 5.378906 -7.546875 4.765625 -7.546875 C 4.109375 -7.546875 3.535156 -7.40625 3.046875 -7.125 C 2.554688 -6.84375 2.171875 -6.4375 1.890625 -5.90625 C 1.617188 -5.375 1.484375 -4.742188 1.484375 -4.015625 C 1.484375 -3.285156 1.617188 -2.65625 1.890625 -2.125 C 2.171875 -1.59375 2.554688 -1.179688 3.046875 -0.890625 C 3.546875 -0.609375 4.117188 -0.46875 4.765625 -0.46875 C 5.378906 -0.46875 5.941406 -0.613281 6.453125 -0.90625 C 6.960938 -1.195312 7.359375 -1.609375 7.640625 -2.140625 C 7.929688 -2.679688 8.078125 -3.304688 8.078125 -4.015625 Z M 8.078125 -4.015625 "/></g></g></g><g fill="#5271ff" fill-opacity="1"><g transform="translate(279.438141, 56.954024)"><g><path d="M 7.484375 -8.03125 L 2.8125 3.765625 L 2.125 3.765625 L 3.625 0 L 0.25 -8.03125 L 0.96875 -8.03125 L 3.984375 -0.734375 L 6.796875 -8.03125 Z M 7.484375 -8.03125 "/></g></g></g><g fill="#5271ff" fill-opacity="1"><g transform="translate(286.890559, 56.954024)"><g><path d="M 3.890625 0.125 C 2.992188 0.125 2.257812 -0.0703125 1.6875 -0.46875 C 1.125 -0.863281 0.804688 -1.425781 0.734375 -2.15625 L 1.421875 -2.15625 C 1.472656 -1.632812 1.710938 -1.21875 2.140625 -0.90625 C 2.566406 -0.601562 3.148438 -0.453125 3.890625 -0.453125 C 4.492188 -0.453125 4.976562 -0.609375 5.34375 -0.921875 C 5.707031 -1.234375 5.890625 -1.613281 5.890625 -2.0625 C 5.890625 -2.382812 5.789062 -2.644531 5.59375 -2.84375 C 5.40625 -3.039062 5.164062 -3.191406 4.875 -3.296875 C 4.59375 -3.410156 4.203125 -3.535156 3.703125 -3.671875 C 3.117188 -3.828125 2.644531 -3.976562 2.28125 -4.125 C 1.914062 -4.28125 1.601562 -4.507812 1.34375 -4.8125 C 1.082031 -5.125 0.953125 -5.535156 0.953125 -6.046875 C 0.953125 -6.421875 1.066406 -6.765625 1.296875 -7.078125 C 1.523438 -7.398438 1.84375 -7.65625 2.25 -7.84375 C 2.65625 -8.03125 3.113281 -8.125 3.625 -8.125 C 4.457031 -8.125 5.132812 -7.914062 5.65625 -7.5 C 6.175781 -7.082031 6.453125 -6.503906 6.484375 -5.765625 L 5.828125 -5.765625 C 5.796875 -6.296875 5.585938 -6.726562 5.203125 -7.0625 C 4.816406 -7.394531 4.285156 -7.5625 3.609375 -7.5625 C 3.035156 -7.5625 2.5625 -7.414062 2.1875 -7.125 C 1.8125 -6.832031 1.625 -6.472656 1.625 -6.046875 C 1.625 -5.671875 1.726562 -5.367188 1.9375 -5.140625 C 2.15625 -4.910156 2.414062 -4.734375 2.71875 -4.609375 C 3.03125 -4.484375 3.445312 -4.351562 3.96875 -4.21875 C 4.519531 -4.0625 4.96875 -3.910156 5.3125 -3.765625 C 5.65625 -3.628906 5.941406 -3.425781 6.171875 -3.15625 C 6.410156 -2.882812 6.53125 -2.519531 6.53125 -2.0625 C 6.53125 -1.65625 6.414062 -1.28125 6.1875 -0.9375 C 5.96875 -0.601562 5.65625 -0.34375 5.25 -0.15625 C 4.84375 0.03125 4.390625 0.125 3.890625 0.125 Z M 3.890625 0.125 "/></g></g></g><g fill="#5271ff" fill-opacity="1"><g transform="translate(293.943733, 56.954024)"><g/></g></g><g fill="#5271ff" fill-opacity="1"><g transform="translate(297.817776, 56.954024)"><g><path d="M 8.609375 -10.375 L 8.609375 0 L 7.9375 0 L 7.9375 -5.03125 L 1.875 -5.03125 L 1.875 0 L 1.21875 0 L 1.21875 -10.375 L 1.875 -10.375 L 1.875 -5.59375 L 7.9375 -5.59375 L 7.9375 -10.375 Z M 8.609375 -10.375 "/></g></g></g><g fill="#5271ff" fill-opacity="1"><g transform="translate(307.355106, 56.954024)"><g><path d="M 8.4375 -4.546875 C 8.4375 -4.191406 8.425781 -3.925781 8.40625 -3.75 L 1.484375 -3.75 C 1.492188 -3.03125 1.644531 -2.425781 1.9375 -1.9375 C 2.238281 -1.445312 2.628906 -1.078125 3.109375 -0.828125 C 3.597656 -0.578125 4.128906 -0.453125 4.703125 -0.453125 C 5.492188 -0.453125 6.15625 -0.644531 6.6875 -1.03125 C 7.21875 -1.425781 7.550781 -1.957031 7.6875 -2.625 L 8.375 -2.625 C 8.21875 -1.8125 7.8125 -1.148438 7.15625 -0.640625 C 6.507812 -0.128906 5.691406 0.125 4.703125 0.125 C 3.953125 0.125 3.28125 -0.0390625 2.6875 -0.375 C 2.09375 -0.71875 1.628906 -1.203125 1.296875 -1.828125 C 0.960938 -2.453125 0.796875 -3.179688 0.796875 -4.015625 C 0.796875 -4.859375 0.957031 -5.585938 1.28125 -6.203125 C 1.613281 -6.828125 2.078125 -7.300781 2.671875 -7.625 C 3.265625 -7.957031 3.941406 -8.125 4.703125 -8.125 C 5.472656 -8.125 6.140625 -7.957031 6.703125 -7.625 C 7.265625 -7.300781 7.691406 -6.863281 7.984375 -6.3125 C 8.285156 -5.769531 8.4375 -5.179688 8.4375 -4.546875 Z M 7.78125 -4.296875 C 7.800781 -5.003906 7.671875 -5.601562 7.390625 -6.09375 C 7.117188 -6.59375 6.738281 -6.960938 6.25 -7.203125 C 5.769531 -7.441406 5.25 -7.5625 4.6875 -7.5625 C 4.125 -7.5625 3.601562 -7.441406 3.125 -7.203125 C 2.644531 -6.960938 2.253906 -6.59375 1.953125 -6.09375 C 1.648438 -5.601562 1.492188 -5.003906 1.484375 -4.296875 Z M 7.78125 -4.296875 "/></g></g></g><g fill="#5271ff" fill-opacity="1"><g transform="translate(316.300974, 56.954024)"><g><path d="M 1.875 -6.375 C 2.070312 -6.957031 2.421875 -7.40625 2.921875 -7.71875 C 3.429688 -8.03125 4.070312 -8.1875 4.84375 -8.1875 L 4.84375 -7.5 L 4.625 -7.5 C 3.832031 -7.5 3.175781 -7.273438 2.65625 -6.828125 C 2.132812 -6.378906 1.875 -5.644531 1.875 -4.625 L 1.875 0 L 1.21875 0 L 1.21875 -8.03125 L 1.875 -8.03125 Z M 1.875 -6.375 "/></g></g></g><g fill="#5271ff" fill-opacity="1"><g transform="translate(321.180518, 56.954024)"><g><path d="M 8.4375 -4.546875 C 8.4375 -4.191406 8.425781 -3.925781 8.40625 -3.75 L 1.484375 -3.75 C 1.492188 -3.03125 1.644531 -2.425781 1.9375 -1.9375 C 2.238281 -1.445312 2.628906 -1.078125 3.109375 -0.828125 C 3.597656 -0.578125 4.128906 -0.453125 4.703125 -0.453125 C 5.492188 -0.453125 6.15625 -0.644531 6.6875 -1.03125 C 7.21875 -1.425781 7.550781 -1.957031 7.6875 -2.625 L 8.375 -2.625 C 8.21875 -1.8125 7.8125 -1.148438 7.15625 -0.640625 C 6.507812 -0.128906 5.691406 0.125 4.703125 0.125 C 3.953125 0.125 3.28125 -0.0390625 2.6875 -0.375 C 2.09375 -0.71875 1.628906 -1.203125 1.296875 -1.828125 C 0.960938 -2.453125 0.796875 -3.179688 0.796875 -4.015625 C 0.796875 -4.859375 0.957031 -5.585938 1.28125 -6.203125 C 1.613281 -6.828125 2.078125 -7.300781 2.671875 -7.625 C 3.265625 -7.957031 3.941406 -8.125 4.703125 -8.125 C 5.472656 -8.125 6.140625 -7.957031 6.703125 -7.625 C 7.265625 -7.300781 7.691406 -6.863281 7.984375 -6.3125 C 8.285156 -5.769531 8.4375 -5.179688 8.4375 -4.546875 Z M 7.78125 -4.296875 C 7.800781 -5.003906 7.671875 -5.601562 7.390625 -6.09375 C 7.117188 -6.59375 6.738281 -6.960938 6.25 -7.203125 C 5.769531 -7.441406 5.25 -7.5625 4.6875 -7.5625 C 4.125 -7.5625 3.601562 -7.441406 3.125 -7.203125 C 2.644531 -6.960938 2.253906 -6.59375 1.953125 -6.09375 C 1.648438 -5.601562 1.492188 -5.003906 1.484375 -4.296875 Z M 7.78125 -4.296875 "/></g></g></g><g fill="#5271ff" fill-opacity="1"><g transform="translate(330.126386, 56.954024)"><g><path d="M 1.65625 -1.546875 L 0.265625 2.234375 L -0.234375 2.234375 L 0.890625 -1.546875 Z M 1.65625 -1.546875 "/></g></g></g><g fill="#5271ff" fill-opacity="1"><g transform="translate(331.94509, 56.954024)"><g/></g></g><g fill="#5271ff" fill-opacity="1"><g transform="translate(335.819117, 56.954024)"><g><path d="M 0.734375 -0.484375 C 2.585938 -1.765625 4.046875 -3 5.109375 -4.1875 C 6.179688 -5.382812 6.71875 -6.53125 6.71875 -7.625 C 6.71875 -8.34375 6.53125 -8.925781 6.15625 -9.375 C 5.78125 -9.832031 5.160156 -10.0625 4.296875 -10.0625 C 3.441406 -10.0625 2.785156 -9.800781 2.328125 -9.28125 C 1.878906 -8.757812 1.625 -8.070312 1.5625 -7.21875 L 0.921875 -7.21875 C 0.984375 -8.300781 1.316406 -9.140625 1.921875 -9.734375 C 2.523438 -10.335938 3.316406 -10.640625 4.296875 -10.640625 C 5.191406 -10.640625 5.925781 -10.390625 6.5 -9.890625 C 7.082031 -9.390625 7.375 -8.640625 7.375 -7.640625 C 7.375 -6.410156 6.804688 -5.171875 5.671875 -3.921875 C 4.546875 -2.671875 3.257812 -1.566406 1.8125 -0.609375 L 7.71875 -0.609375 L 7.71875 -0.046875 L 0.734375 -0.046875 Z M 0.734375 -0.484375 "/></g></g></g><g fill="#5271ff" fill-opacity="1"><g transform="translate(343.951733, 56.954024)"><g><path d="M 0.40625 -2.65625 L 0.40625 -3.171875 L 6.03125 -10.46875 L 6.78125 -10.46875 L 6.78125 -3.234375 L 8.46875 -3.234375 L 8.46875 -2.65625 L 6.78125 -2.65625 L 6.78125 0 L 6.140625 0 L 6.140625 -2.65625 Z M 6.15625 -9.671875 L 1.1875 -3.234375 L 6.15625 -3.234375 Z M 6.15625 -9.671875 "/></g></g></g><g fill="#5271ff" fill-opacity="1"><g transform="translate(352.424432, 56.954024)"><g><path d="M 5.328125 -13.84375 L 1.234375 2.375 L 0.5625 2.375 L 4.640625 -13.84375 Z M 5.328125 -13.84375 "/></g></g></g><g fill="#5271ff" fill-opacity="1"><g transform="translate(358.043287, 56.954024)"><g><path d="M 7.0625 -9.96875 L 2.921875 0 L 2.25 0 L 6.4375 -9.921875 L 0.265625 -9.921875 L 0.265625 -10.5 L 7.0625 -10.5 Z M 7.0625 -9.96875 "/></g></g></g></svg>